<svg xmlns="http://www.w3.org/2000/svg" width="18" height="20" fill="none"><path fill="#000" d="M7.24 8.39c-.57 0-1.02.5-1.02 1.11 0 .61.46 1.11 1.02 1.11.57 0 1.02-.5 1.02-1.11.01-.61-.45-1.11-1.02-1.11Zm3.65 0c-.57 0-1.02.5-1.02 1.11 0 .61.46 1.11 1.02 1.11.57 0 1.02-.5 1.02-1.11 0-.61-.45-1.11-1.02-1.11Z"/><path fill="#000" d="M15.75 0H2.35C1.22 0 .3.92.3 2.06v13.52c0 1.14.92 2.06 2.05 2.06h11.34l-.53-1.85 1.28 1.19 1.21 1.12L17.8 20V2.06C17.8.92 16.88 0 15.75 0Zm-3.86 13.06-.66-.81c1.31-.37 1.81-1.19 1.81-1.19-.41.27-.8.46-1.15.59a7 7 0 0 1-5.51-.01c-.23-.09-.48-.2-.73-.34l-.09-.05-.04-.03a3.5 3.5 0 0 1-.28-.17s.48.8 1.75 1.18l-.67.83c-2.21-.07-3.05-1.52-3.05-1.52a13.4 13.4 0 0 1 1.44-5.83c1.44-1.08 2.81-1.05 2.81-1.05l.1.12c-1.8.52-2.63 1.31-2.63 1.31s.22-.12.59-.29a7.51 7.51 0 0 1 2.27-.63l.17-.02a8.15 8.15 0 0 1 5.03.94s-.79-.75-2.49-1.27l.14-.16s1.37-.03 2.81 1.05c0 0 1.44 2.61 1.44 5.83 0 0-.85 1.45-3.06 1.52Z"/></svg>