<svg xmlns="http://www.w3.org/2000/svg" width="20" height="20" fill="none"><path fill="#000" fill-rule="evenodd" d="M20 10a10 10 0 1 1-20 0 10 10 0 0 1 20 0Zm-4.8-1.46c.81 0 1.47.65 1.47 1.46 0 .6-.37 1.11-.85 1.35.03.14.04.28.04.43 0 2.24-2.6 4.06-5.84 4.06-3.22 0-5.83-1.82-5.83-4.06 0-.15 0-.3.03-.45a1.46 1.46 0 1 1 1.6-2.39c1.01-.73 2.4-1.19 3.96-1.23l.73-3.49a.28.28 0 0 1 .12-.16.3.3 0 0 1 .2-.04l2.42.52c.17-.35.52-.59.93-.59a1.04 1.04 0 0 1 0 2.09c-.57 0-1.02-.45-1.05-1l-2.16-.46-.67 3.13c1.52.06 2.9.52 3.9 1.24.26-.26.6-.41 1-.41ZM7.7 10a1.04 1.04 0 0 0 0 2.08 1.04 1.04 0 0 0 0-2.08Zm2.31 4.55c.4 0 1.76-.05 2.47-.76.1-.1.1-.27.02-.39a.28.28 0 0 0-.38 0c-.46.45-1.4.61-2.1.61-.69 0-1.65-.16-2.09-.6a.28.28 0 0 0-.39 0c-.1.1-.1.27 0 .38.7.7 2.07.76 2.47.76Zm1.24-3.5a1.04 1.04 0 0 0 2.08 0 1.04 1.04 0 0 0-2.08 0Z" clip-rule="evenodd"/></svg>