<svg xmlns="http://www.w3.org/2000/svg" width="800" height="800" fill="none" viewBox="0 0 24 24"><path fill="#000" fill-rule="evenodd" d="M9 2.25A3.75 3.75 0 0 0 6.75 9a3.74 3.74 0 0 0 0 6 3.74 3.74 0 1 0 6 3v-3a3.75 3.75 0 0 0 4.5-6A3.74 3.74 0 0 0 15 2.25h-3.75zm6 6a2.25 2.25 0 0 0 0-4.5h-2.25v4.5zM11.25 12V9.75H9a2.25 2.25 0 0 0 0 4.5h2.25zm1.5 0a2.25 2.25 0 1 1 4.5 0 2.25 2.25 0 0 1-4.5 0zM9 3.75h2.25v4.5H9a2.25 2.25 0 0 1 0-4.5zm0 12h2.25V18A2.25 2.25 0 1 1 9 15.75z" clip-rule="evenodd"/></svg>