<svg xmlns="http://www.w3.org/2000/svg" width="57" height="56" fill="none"><path fill="#fff" d="M.5 56V0h56v56H.5Z"/><path fill="#000" d="M37.11 41.92c1.08 1.75 2.25 3.42 4.73 3.42 2.08 0 3.17-1.03 3.17-2.46 0-1.72-1.13-2.33-3.42-3.32l-1.25-.54c-3.63-1.53-6.03-3.46-6.03-7.53 0-3.75 2.87-6.6 7.35-6.6 3.2 0 5.49 1.1 7.14 4l-3.9 2.5c-.87-1.53-1.8-2.14-3.24-2.14-1.47 0-2.4.93-2.4 2.14 0 1.5.93 2.1 3.08 3.04l1.26.53c4.27 1.82 6.68 3.68 6.68 7.85 0 4.5-3.56 6.97-8.32 6.97-4.67 0-7.32-2.34-8.8-5.24l3.95-2.62Zm-18.02.13c.79 1.4 1.99 2.49 3.7 2.49 1.65 0 2.6-.65 2.6-3.18V24.9h5.18v17.27c0 5.23-3.03 7.62-7.47 7.62-4.01 0-6.9-2.72-8.08-5.24l4.07-2.5Z"/></svg>