<svg xmlns="http://www.w3.org/2000/svg" width="54" height="56" fill="none"><path fill="#000" fill-rule="evenodd" d="M31.95.93c-.38 0-.73.08-1.06.2.7.48 1.08 1.12 1.27 1.84l.05.27c.02.08.03.17.03.25.06 1.25-.31 1.4-.57 2.14-.4.95-.29 1.97.19 2.79.04.1.1.21.16.31-.52-3.58 2.37-4.12 2.9-5.24.04-.98-.74-1.63-1.35-2.08a2.95 2.95 0 0 0-1.62-.48Zm4.35.8c-.05.33-.01.25-.02.42-.02.11-.02.25-.03.36l-.1.34c-.02.12-.06.23-.1.34l-.16.33-.1.17-.09.13c-.07.1-.13.2-.2.28-.09.09-.15.18-.25.26v.01c-.08.07-.16.16-.26.23-.29.22-.61.4-.92.6-.1.08-.19.13-.27.22-.1.07-.18.14-.26.22-.1.09-.16.17-.24.27-.07.09-.16.19-.21.29l-.2.3-.14.32-.11.32a4.7 4.7 0 0 0-.1.36l-.02.18-.03.17-.02.36c0 .08 0 .17.02.25a3 3 0 0 0 .1.7c.05.1.08.22.12.33.02.08.07.15.1.2l-3.15-1.26c-.54-.15-1.06-.3-1.59-.42l-.86-.21c-.82-.17-1.66-.3-2.49-.39l-.07-.01a23.63 23.63 0 0 0-6.74.25l-.62.12a26.66 26.66 0 0 0-1.84.45l-.6.27-.44.21-.07.03-.38.2a5.98 5.98 0 0 0-.52.27l-.28.14-.12.07a8.13 8.13 0 0 0-.68.42c-.1.08-.2.13-.28.2l-.04.03-.26.2-.03.03-.2.17-.08.05-.2.19c-.02.03-.05.04-.06.05l-.25.25-.03.02-.24.24-.03.03c-.07.07-.14.14-.2.23l-.1.08-.23.26-.06.07-.31.34-.04.04a8.2 8.2 0 0 1-1.47 1.32 8.23 8.23 0 0 1-2.57 1.3c-.57.13-1.16.37-1.67.41-.1 0-.23.03-.34.04l-.34.09-.33.13-.33.15-.3.2c-.1.07-.19.16-.27.24-.1.07-.2.17-.28.26l-.23.28c-.07.11-.15.21-.2.33-.07.1-.14.2-.2.32l-.15.37-.12.37-.07.34-.01.04c-.03.13-.03.3-.04.38l-.03.28.01.19a1.55 1.55 0 0 0 .16.52v.02l.15.25.17.26a3.68 3.68 0 0 0 .5.45c.32.3.4.4.83.62.07.05.14.07.22.12l.04.01.01.07.07.34c.03.13.07.24.11.34l.11.26.04.07a6.26 6.26 0 0 0 .37.6l.23.27.26.24.03.02.25.2.3.18.31.16c.08.04.18.07.28.1l.05.02.18.05c-.04.76-.06 1.48.05 1.74.13.28.73-.58 1.33-1.57a8.94 8.94 0 0 0 0 2.46c.15.35.97-.75 1.68-1.97C18.21 22.86 27.06 29.8 28 39.6c-.18-1.53-2-2.38-2.83-2.17a7.39 7.39 0 0 1-2.23 3.23c.1-.94.05-1.9-.14-2.83a9.29 9.29 0 0 1-1.7 3.56c-1.3.1-2.6-.55-3.28-1.53-.05-.04-.07-.12-.1-.18l-.12-.3a1.2 1.2 0 0 1-.08-.3l-.01-.3v-.22c.01-.1.04-.2.07-.3.02-.1.05-.2.1-.3.05-.1.09-.2.16-.29.23-.68.23-1.23-.2-1.56l-.25-.14-.18-.06-.11-.04-.29-.07a1 1 0 0 0-.29-.04l-.3-.03-.2.01c-.11 0-.2.02-.3.05l-.3.05-.28.1-.27.13-.26.14c-3.19 2.15-1.29 7.2.89 8.65-.82.16-1.66.34-1.89.53l-.03.02c.6.37 1.2.68 1.85.95.87.3 1.8.57 2.22.68v.02c1.13.24 2.28.32 3.44.25 6.06-.44 11.03-5.2 11.93-11.5l.08.37c.04.26.1.53.12.8v.01l.06.37v.06l.03.36.02.47v.23l.02.22-.02.26v.2l-.01.28-.01.18-.02.32-.01.12-.04.33c0 .04 0 .08-.02.13l-.05.4v.03l-.08.4v.04l-.09.39-.01.05a3.9 3.9 0 0 1-.1.38v.05c-.04.14-.08.27-.1.4-.02 0-.02.02-.02.02l-.12.43-.15.4-.15.42-.17.4h-.01c-.05.14-.11.28-.18.4a.7.7 0 0 1-.04.1l-.03.05a13.3 13.3 0 0 1-4.17 5l-.1.07c-.09.07-.19.14-.3.2l.05.1h.01l.57-.1H28c.35-.05.71-.12 1.07-.2.1 0 .2-.03.3-.06l.19-.04.28-.06.25-.07c1.37-.34 2.7-.8 3.97-1.36a22.08 22.08 0 0 1-8.5 7.18c1.58-.12 3.15-.38 4.67-.84a22.01 22.01 0 0 0 12.92-10.69 23.03 23.03 0 0 1-3.68 9.1c1.33-.9 2.55-1.95 3.66-3.14a22.75 22.75 0 0 0 5.75-12.03c.47 2.24.6 4.54.4 6.82 9.87-14.25.82-29.04-2.97-32.93-.01-.03-.03-.04-.03-.07v.03c0-.02 0-.02-.02-.03a6.35 6.35 0 0 1-.17 1.46l-.23.93a12.02 12.02 0 0 1-.74 1.77 9.73 9.73 0 0 1-2.1 2.64l-.3.28a9.4 9.4 0 0 1-1.57 1.03l-.87.4a9.4 9.4 0 0 1-1.8.5 10.14 10.14 0 0 1-2.52.09 6.7 6.7 0 0 1-.93-.14 6.73 6.73 0 0 1-.92-.24h-.01a9.83 9.83 0 0 0 2.7-.62 9.48 9.48 0 0 0 2.45-1.43c.25-.2.48-.41.7-.64.23-.21.44-.45.64-.7.21-.25.4-.5.58-.76l.08-.14.4-.68a9.89 9.89 0 0 0 .74-1.77c.1-.3.16-.6.23-.92l.14-.95c.02-.32.05-.65.05-.96a19.83 19.83 0 0 0-.14-1.63c-.05-.32-.12-.63-.2-.95l-.3-.9a9.94 9.94 0 0 0-1.4-2.5 29.58 29.58 0 0 0-.98-1.07 25.2 25.2 0 0 0-1.9-1.39l-.28-.14c-.45-.3-.87-.45-1.3-.6Z" clip-rule="evenodd"/></svg>