<svg xmlns="http://www.w3.org/2000/svg" width="52" height="39" fill="none"><path fill="#000" d="M44.511 22.282c-1.794.01-3.348.44-4.65 1.083-.476-.951-.959-1.788-1.04-2.41-.094-.725-.203-1.16-.09-2.024.115-.864.616-2.09.609-2.181-.007-.093-.112-.532-1.147-.54-1.035-.008-1.92.199-2.024.472-.104.273-.304.888-.427 1.53-.181.938-2.066 4.285-3.136 6.035-.35-.684-.648-1.286-.71-1.762-.094-.726-.204-1.16-.09-2.024.115-.865.615-2.09.608-2.182-.007-.092-.112-.532-1.147-.54-1.034-.007-1.92.2-2.024.473-.103.273-.215.91-.427 1.529-.212.617-2.717 6.2-3.374 7.648a44.09 44.09 0 0 1-.83 1.733l-.002-.002-.033.072c-.177.344-.28.535-.28.535l.003.006c-.14.254-.29.488-.363.488-.051 0-.155-.673.022-1.597.374-1.937 1.269-4.956 1.26-5.061-.004-.054.167-.58-.584-.855-.73-.267-.99.178-1.057.18-.064 0-.112.157-.112.157s.813-3.396-1.552-3.396c-1.479 0-3.528 1.618-4.537 3.084-.637.348-2 1.093-3.446 1.887l-1.66.913-.111-.12c-2.869-3.061-8.17-5.225-7.946-9.34.081-1.496.602-5.434 10.188-10.21 7.853-3.914 14.14-2.837 15.226-.451 1.552 3.41-3.36 9.746-11.515 10.661-3.106.349-4.743-.856-5.15-1.304-.429-.473-.493-.494-.653-.405-.26.144-.095.561 0 .81.244.633 1.243 1.756 2.946 2.317 1.5.492 5.148.761 9.559-.945 4.942-1.912 8.8-7.23 7.666-11.673-1.153-4.52-8.648-6.006-15.74-3.486-4.228 1.5-8.797 3.855-12.084 6.928C.75 11.969.127 15.15.383 16.479c.913 4.723 7.422 7.798 10.028 10.076-.128.072-.25.138-.36.199-1.306.646-6.268 3.243-7.51 5.986-1.407 3.111.225 5.344 1.305 5.645 3.347.931 6.782-.744 8.629-3.497 1.845-2.752 1.62-6.337.773-7.973l-.032-.06 1.022-.604c.665-.39 1.318-.755 1.884-1.063-.317.868-.55 1.91-.67 3.414-.142 1.766.582 4.05 1.53 4.948.417.395.919.405 1.236.405 1.103 0 1.606-.917 2.16-2.002.679-1.33 1.282-2.88 1.282-2.88s-.756 4.184 1.304 4.184c.752 0 1.507-.974 1.844-1.47v.008l.06-.097c.077-.119.122-.195.122-.195s0-.008.003-.022c.302-.524.972-1.718 1.975-3.689 1.298-2.546 2.541-5.735 2.541-5.735s.116.78.495 2.07c.223.758.697 1.597 1.071 2.402-.301.417-.485.657-.485.657s0 .004.004.012c-.24.32-.51.664-.792 1-1.024 1.22-2.243 2.612-2.407 3.014-.192.473-.147.821.226 1.102.271.204.754.237 1.26.203.92-.062 1.566-.29 1.886-.43a6.334 6.334 0 0 0 1.622-.852c1.004-.738 1.61-1.794 1.551-3.194-.032-.771-.277-1.536-.589-2.257l.274-.396c1.584-2.315 2.812-4.858 2.812-4.858s.116.779.495 2.07c.191.651.57 1.364.91 2.062-1.488 1.21-2.41 2.616-2.731 3.537-.593 1.706-.129 2.478.742 2.654.394.08.951-.101 1.37-.278a6.342 6.342 0 0 0 1.734-.892c1.005-.738 1.97-1.772 1.912-3.17-.027-.638-.2-1.27-.434-1.877 1.262-.526 2.896-.817 4.977-.575 4.465.522 5.34 3.309 5.173 4.476-.168 1.166-1.104 1.808-1.417 2.002-.313.193-.409.26-.383.404.039.21.183.202.45.157.368-.062 2.344-.949 2.43-3.103.105-2.736-2.514-5.74-7.154-5.715ZM10.099 33.883c-1.479 1.614-3.544 2.223-4.43 1.71-.957-.555-.578-2.93 1.236-4.643 1.106-1.043 2.534-2.004 3.481-2.595l.917-.551.1-.056v-.003l.228-.137c.662 2.437.021 4.582-1.532 6.275Zm10.774-7.323c-.514 1.256-1.592 4.469-2.249 4.296-.563-.148-.906-2.59-.112-4.994.4-1.21 1.253-2.655 1.755-3.216.807-.903 1.696-1.198 1.912-.832.274.467-.982 3.959-1.306 4.746Zm8.901 4.247c-.218.114-.419.185-.511.13-.069-.04.09-.19.09-.19s1.113-1.199 1.552-1.744c.255-.317.55-.694.872-1.114.003.042.004.084.004.125-.003 1.435-1.389 2.403-2.007 2.793Zm6.857-1.563c-.164-.116-.136-.49.4-1.658.21-.459.69-1.23 1.523-1.967.097.303.156.593.154.864-.01 1.806-1.298 2.48-2.078 2.76Z"/></svg>