<svg xmlns="http://www.w3.org/2000/svg" width="57" height="56" fill="none"><path fill="#010101" d="M56.49 27.383c-.153-9.362-5.373-18.478-13.45-23.278C36.679.142 28.64-.925 21.4.904 10.504 3.647 1.817 13.515.713 24.762c-1.372 10.623 4 21.67 13.182 27.118 8.991 5.639 21.22 5.41 30.012-.525 7.925-5.143 12.84-14.524 12.574-23.964l.008-.008Zm-26.441 24.46C17.324 53.102 5.018 42.32 4.674 29.557 3.71 19.193 10.54 8.944 20.294 5.516c13.678-5.487 30.48 4.647 31.89 19.316 2.21 13.181-8.763 26.6-22.135 27.012Zm-8.374-25.26 18.401-15.05-9.943 15.087c-2.82 0-5.639.001-8.458-.038Zm5.174 2.782 8.458.039L16.905 44.49l9.944-15.126Z"/></svg>