<svg xmlns="http://www.w3.org/2000/svg" width="56" height="56" fill="none"><path fill="#000" fill-rule="evenodd" d="m9.855 48.654-1.52-40.45a2.465 2.465 0 0 1 2.313-2.548l26.96-1.686 2.059.697 2.677-.993 2.702-.17a2.464 2.464 0 0 1 2.62 2.461v44.073a2.465 2.465 0 0 1-2.468 2.463l-.108-.002-32.883-1.477a2.463 2.463 0 0 1-2.352-2.368Z" clip-rule="evenodd"/><path fill="#fff" fill-rule="evenodd" d="m42.342 3.674-4.733.294-.23 5.554a.369.369 0 0 0 .588.31l2.156-1.637 1.822 1.436a.367.367 0 0 0 .595-.301l-.196-5.655-.002-.001Zm-3.684 18.595c-.865.674-7.324 1.132-7.324.174.138-3.657-1.499-3.817-2.41-3.817-.862 0-2.318.26-2.318 2.22 0 1.996 2.127 3.123 4.623 4.446 3.546 1.88 7.84 4.156 7.84 9.878 0 5.488-4.459 8.517-10.143 8.517-5.867 0-10.995-2.374-10.417-10.604.228-.965 7.689-.735 7.689 0-.094 3.396.68 4.395 2.636 4.395 1.502 0 2.183-.828 2.183-2.22 0-2.11-2.214-3.354-4.765-4.785-3.452-1.938-7.514-4.218-7.514-9.454 0-5.223 3.592-8.707 10.005-8.707s9.915 3.431 9.915 9.957Z" clip-rule="evenodd"/></svg>