<svg xmlns="http://www.w3.org/2000/svg" width="14" height="16" fill="none"><path fill="#fff" d="M13.56 5.46c-.07.04-1.9.98-1.9 3.07.1 2.38 2.3 3.21 2.34 3.21-.04.04-.33 1.14-1.2 2.28-.7.99-1.48 1.98-2.65 1.98-1.11 0-1.51-.66-2.8-.66-1.38 0-1.77.66-2.83.66-1.17 0-2-1.05-2.73-2.02A9.52 9.52 0 0 1 0 8.77c-.02-1.02.2-2.03.72-2.88.76-1.19 2.1-2 3.57-2.02 1.12-.04 2.12.72 2.8.72.66 0 1.9-.72 3.28-.72.6 0 2.2.17 3.2 1.59ZM7 3.66c-.2-.93.35-1.86.87-2.45C8.52.49 9.57 0 10.46 0c.05.93-.3 1.85-.96 2.51-.58.72-1.58 1.26-2.5 1.15Z"/></svg>