<svg xmlns="http://www.w3.org/2000/svg" width="32" height="32" fill="none"><path fill="#4285F4" d="M30 16.31c0-1.15-.1-1.99-.3-2.86H16.29v5.2h7.87a6.82 6.82 0 0 1-2.92 4.54l-.03.17 4.24 3.22.3.03c2.7-2.44 4.25-6.04 4.25-10.3Z"/><path fill="#34A853" d="M16.29 30c3.85 0 7.1-1.24 9.46-3.4l-4.51-3.41a8.58 8.58 0 0 1-4.95 1.4 8.58 8.58 0 0 1-8.13-5.82l-.17.01-4.4 3.35-.07.15A14.3 14.3 0 0 0 16.3 30Z"/><path fill="#FBBC05" d="M8.16 18.77a8.46 8.46 0 0 1-.02-5.54v-.18l-4.47-3.4-.14.07a13.79 13.79 0 0 0 0 12.56l4.63-3.51Z"/><path fill="#EB4335" d="M16.29 7.41A8 8 0 0 1 21.8 9.5l4.03-3.86A13.88 13.88 0 0 0 16.3 2 14.3 14.3 0 0 0 3.52 9.72l4.62 3.51a8.62 8.62 0 0 1 8.15-5.82Z"/></svg>