<svg xmlns="http://www.w3.org/2000/svg" width="30" height="30" fill="none"><circle cx="15" cy="15" r="15" fill="#000"/><path fill="#fff" d="M16.36 18.85V17.2c0-.23.24-.4.53-.4 1.04 0 1.6-.83 1.69-2.46h-1.7c-.28 0-.52-.19-.52-.41V10.4c0-.23.24-.41.53-.41h4.5c.3 0 .53.18.53.4v3.52c0 .78-.1 1.5-.3 2.13a4.38 4.38 0 0 1-2.54 2.81c-.63.27-1.37.4-2.2.4-.28 0-.52-.18-.52-.4Zm-6.83-2.07c-.3 0-.53.18-.53.41v1.66c0 .23.24.41.53.41.82 0 1.56-.13 2.2-.4a4.37 4.37 0 0 0 2.53-2.81c.2-.63.3-1.35.3-2.13V10.4c0-.23-.23-.41-.53-.41h-4.5c-.3 0-.53.18-.53.4v3.52c0 .22.24.4.53.4h1.67c-.08 1.64-.64 2.46-1.67 2.46Z"/></svg>